Coordinates
version=1
nRows=11
nColumns=63
inDegrees=yes

Units are S.I. units (second, meters, Newtons, ...)
If the header above contains a line with 'inDegrees', this indicates whether rotational values are in degrees (yes) or radians (no).

endheader
time	pelvis_tilt	pelvis_list	pelvis_rotation	pelvis_tx	pelvis_ty	pelvis_tz	hip_flexion_r	hip_adduction_r	hip_rotation_r	knee_angle_r	knee_angle_r_beta	ankle_angle_r	subtalar_angle_r	mtp_angle_r	hip_flexion_l	hip_adduction_l	hip_rotation_l	knee_angle_l	knee_angle_l_beta	ankle_angle_l	subtalar_angle_l	mtp_angle_l	L5_S1_Flex_Ext	L5_S1_Lat_Bending	L5_S1_axial_rotation	L4_L5_Flex_Ext	L4_L5_Lat_Bending	L4_L5_axial_rotation	L3_L4_Flex_Ext	L3_L4_Lat_Bending	L3_L4_axial_rotation	L2_L3_Flex_Ext	L2_L3_Lat_Bending	L2_L3_axial_rotation	L1_L2_Flex_Ext	L1_L2_Lat_Bending	L1_L2_axial_rotation	L1_T12_Flex_Ext	L1_T12_Lat_Bending	L1_T12_axial_rotation	Abs_r3	Abs_r2	Abs_r1	Abs_t1	Abs_t2	neck_flexion	neck_bending	neck_rotation	arm_flex_r	arm_add_r	arm_rot_r	elbow_flex_r	pro_sup_r	wrist_flex_r	wrist_dev_r	arm_flex_l	arm_add_l	arm_rot_l	elbow_flex_l	pro_sup_l	wrist_flex_l	wrist_dev_l
3.021277	-3.477688	-2.542052	101.767723	0.103894	1.057733	0.439551	-5.700096	-0.848493	2.138939	2.989470	0.052176	25.001990	-5.168065	0.000000	-3.451539	2.245136	-2.802988	8.868799	0.154790	27.278038	7.283797	0.000000	-0.092259	-0.389339	-1.250822	-0.171335	-0.517821	-1.328998	-0.151573	-0.946640	-1.328998	-0.105443	-0.946640	-1.094469	-0.085672	-0.793941	-1.016293	-0.052717	-0.603087	-0.938116	-0.658998	-4.404284	-6.956696	0.000000	0.000000	8.317278	8.575147	17.109116	13.319244	-6.267129	11.144538	94.732598	55.084061	-12.447647	14.557954	10.454137	-17.720245	-2.251705	99.939416	80.317581	-12.428563	-3.342862
3.042553	-3.448762	-2.502951	101.506601	0.104072	1.057727	0.439609	-5.653711	-0.858539	2.192601	2.942692	0.051360	25.005320	-4.799598	0.000000	-3.368997	2.198019	-3.931978	9.254923	0.161529	27.488578	8.008868	0.000000	-0.103543	-0.377813	-1.155270	-0.192290	-0.502492	-1.227475	-0.170111	-0.918615	-1.227475	-0.118339	-0.918615	-1.010861	-0.096150	-0.770437	-0.938657	-0.059165	-0.585233	-0.866453	-0.739598	-4.273899	-6.425267	0.000000	0.000000	8.721400	8.390615	16.535564	13.401109	-6.875064	11.137452	93.820944	56.910143	-12.878389	13.640574	10.210530	-17.681688	-2.003740	99.466529	80.387603	-12.245917	-3.267932
3.063830	-3.429676	-2.459648	101.241995	0.104235	1.057709	0.439559	-5.635664	-0.877919	2.329386	2.863052	0.049970	24.999060	-4.516044	0.000000	-3.332472	2.165617	-5.038295	9.558151	0.166821	27.671197	8.742110	0.000000	-0.113812	-0.367375	-1.067961	-0.211360	-0.488609	-1.134708	-0.186982	-0.893236	-1.134708	-0.130076	-0.893236	-0.934465	-0.105686	-0.749151	-0.867718	-0.065032	-0.569064	-0.800970	-0.812949	-4.155821	-5.939676	0.000000	0.000000	9.097362	8.195473	15.968887	13.515588	-7.481960	11.165685	92.815469	59.222823	-13.306700	12.602968	9.920918	-17.780044	-1.717593	99.165151	80.588677	-12.113602	-3.268145
3.085106	-3.417771	-2.411689	100.986365	0.104387	1.057674	0.439398	-5.648323	-0.899473	2.519619	2.764671	0.048253	24.990615	-4.317104	0.000000	-3.327722	2.135026	-6.139660	9.807243	0.171169	27.854103	9.543052	0.000000	-0.123080	-0.357510	-0.987341	-0.228572	-0.475488	-1.049049	-0.202208	-0.869249	-1.049049	-0.140668	-0.869249	-0.863923	-0.114292	-0.729033	-0.802214	-0.070328	-0.553782	-0.740505	-0.879147	-4.044219	-5.491292	0.000000	0.000000	9.435347	7.977795	15.416760	13.597977	-8.099712	11.216008	91.798898	61.903009	-13.716792	11.621137	9.580984	-18.065259	-1.293556	99.043808	80.647648	-12.071242	-3.497041
3.106383	-3.422073	-2.355861	100.734080	0.104533	1.057632	0.439095	-5.697294	-0.934988	2.744172	2.659949	0.046425	24.981148	-4.176940	0.000000	-3.378996	2.124734	-7.145165	9.956939	0.173781	27.998782	10.306818	0.000000	-0.131318	-0.349396	-0.912041	-0.243870	-0.464696	-0.969044	-0.215742	-0.849521	-0.969044	-0.150083	-0.849521	-0.798036	-0.121942	-0.712488	-0.741033	-0.075035	-0.541214	-0.684031	-0.937989	-3.952434	-5.072498	0.000000	0.000000	9.712129	7.754136	14.917500	13.623318	-8.746203	11.347542	90.797564	64.359503	-14.070289	10.716671	9.171091	-18.518663	-0.781892	99.170400	80.787992	-12.128875	-3.620104
3.127660	-3.446569	-2.293511	100.496393	0.104688	1.057575	0.438668	-5.783272	-0.984954	3.030971	2.554519	0.044585	24.954998	-4.159872	0.000000	-3.472250	2.130890	-8.125482	10.028283	0.175027	28.129904	11.153725	0.000000	-0.139085	-0.343771	-0.843013	-0.258295	-0.457215	-0.895702	-0.228503	-0.835844	-0.895702	-0.158961	-0.835844	-0.737637	-0.129155	-0.701017	-0.684948	-0.079473	-0.532501	-0.632260	-0.993473	-3.888801	-4.688588	0.000000	0.000000	9.926998	7.546744	14.516700	13.586441	-9.405700	11.574857	89.834049	66.390406	-14.364527	9.962692	8.707054	-19.151394	-0.171971	99.582303	80.990148	-12.283494	-3.488615
3.148936	-3.497481	-2.227349	100.277185	0.104836	1.057507	0.438136	-5.897854	-1.058580	3.327007	2.464368	0.043011	24.930314	-4.197746	0.000000	-3.617766	2.175617	-8.850017	9.987123	0.174308	28.192212	11.789514	0.000000	-0.145707	-0.341654	-0.777801	-0.270593	-0.454399	-0.826413	-0.239383	-0.830697	-0.826413	-0.166529	-0.830697	-0.680576	-0.135304	-0.696700	-0.631963	-0.083257	-0.529222	-0.583351	-1.040774	-3.864855	-4.325894	0.000000	0.000000	10.060022	7.356731	14.202475	13.478475	-10.078940	11.891916	88.907745	67.698665	-14.574557	9.357654	8.237454	-19.939549	0.510687	100.257010	81.390649	-12.382456	-2.953167
3.170213	-3.562288	-2.152683	100.080884	0.104975	1.057430	0.437519	-6.039298	-1.144297	3.533512	2.398282	0.041858	24.929548	-4.173576	0.000000	-3.809646	2.244992	-9.294316	9.847011	0.171863	28.202639	12.191088	0.000000	-0.151431	-0.341862	-0.711042	-0.281223	-0.454677	-0.755482	-0.248786	-0.831204	-0.755482	-0.173071	-0.831204	-0.622162	-0.140619	-0.697125	-0.577722	-0.086528	-0.529545	-0.533281	-1.081658	-3.867214	-3.954602	0.000000	0.000000	10.103474	7.211142	13.951035	13.275722	-10.756036	12.236778	88.044893	68.466921	-14.723562	8.973722	7.833754	-20.841050	1.314622	101.109929	81.742148	-12.399556	-2.080668
3.191489	-3.649085	-2.074304	99.912467	0.105104	1.057352	0.436856	-6.203476	-1.250447	3.653518	2.355943	0.041119	24.942890	-4.115646	0.000000	-4.041694	2.348028	-9.449660	9.606273	0.167661	28.142693	12.353866	0.000000	-0.155986	-0.345816	-0.645486	-0.289682	-0.459936	-0.685829	-0.256270	-0.840818	-0.685829	-0.178277	-0.840818	-0.564800	-0.144849	-0.705189	-0.524457	-0.089131	-0.535670	-0.484114	-1.114194	-3.911945	-3.589999	0.000000	0.000000	10.075969	7.110851	13.732846	13.020438	-11.474700	12.678227	87.220987	68.758121	-14.778249	8.775886	7.528428	-21.852122	2.235076	102.083104	82.039174	-12.321319	-0.940640
3.212766	-3.734997	-1.992656	99.733676	0.105266	1.057266	0.436200	-6.365559	-1.360328	3.676063	2.362431	0.041232	24.969446	-3.962513	0.000000	-4.301696	2.465825	-9.361207	9.278676	0.161943	28.039043	12.271552	0.000000	-0.159203	-0.350667	-0.575499	-0.295656	-0.466388	-0.611468	-0.261555	-0.852613	-0.611468	-0.181953	-0.852613	-0.503562	-0.147836	-0.715081	-0.467593	-0.090969	-0.543184	-0.431624	-1.137172	-3.966820	-3.200753	0.000000	0.000000	9.995146	7.001327	13.499920	12.757070	-12.223421	13.199938	86.422689	68.216636	-14.665484	8.863704	7.335140	-22.885213	3.188003	103.147050	82.453350	-12.123177	0.609129
3.234043	-3.834188	-1.910606	99.565237	0.105442	1.057179	0.435575	-6.533836	-1.484970	3.622926	2.401610	0.041916	24.993142	-3.774172	0.000000	-4.578929	2.611435	-9.003077	8.884049	0.155056	27.871093	11.919981	0.000000	-0.161642	-0.358124	-0.515106	-0.300185	-0.476304	-0.547300	-0.265562	-0.870742	-0.547300	-0.184741	-0.870742	-0.450718	-0.150101	-0.730286	-0.418524	-0.092362	-0.554733	-0.386330	-1.154592	-4.051166	-2.864866	0.000000	0.000000	9.879311	6.914975	13.294395	12.554770	-12.976415	13.883929	85.596611	67.282585	-14.511845	9.062902	7.219792	-23.935237	4.103923	104.270452	82.608112	-11.837123	2.375145
